<?xml version="1.0" encoding="utf-8"?>
<!-- Generator: Adobe Illustrator 26.4.1, SVG Export Plug-In . SVG Version: 6.00 Build 0)  -->
<svg version="1.1" id="b917c841-faa6-4e06-9064-7f0b32705537"
	 xmlns="http://www.w3.org/2000/svg" xmlns:xlink="http://www.w3.org/1999/xlink" x="0px" y="0px" viewBox="0 0 513.1 404.1"
	 style="enable-background:new 0 0 513.1 404.1;" xml:space="preserve">
<style type="text/css">
	.st0{fill:#787E8E;}
	.st1{fill:#FFA800;}
</style>
<g>
	<g>
		<path class="st0" d="M369.4,113.8c0-6-3.4-11.5-8.8-14.2L200.8,19.7c-4.5-2.3-9.9-2.3-14.4,0L26.7,99.6c-7.9,4-11,13.7-6.9,21.5
			c1.5,3,4,5.4,6.9,6.9L78,153.8l-51.3,25.7c-7.9,4-11,13.7-6.9,21.5c1.5,3,4,5.4,6.9,6.9L78,233.7l-51.3,25.7
			c-7.9,4-11,13.7-6.9,21.5c1.5,3,4,5.4,6.9,6.9l159.8,79.9c4.5,2.3,9.9,2.3,14.4,0l159.8-79.9c7.9-4,11-13.7,6.9-21.5
			c-1.5-3-4-5.4-6.9-6.9l-51.3-25.7l51.3-25.7c7.9-4,11-13.7,6.9-21.5c-1.5-3-4-5.4-6.9-6.9l-51.3-25.7l51.3-25.7
			C366,125.4,369.4,119.9,369.4,113.8z M317.6,273.6l-124,62l-124-62l44.1-22l72.7,36.3c4.5,2.3,9.9,2.3,14.4,0l72.7-36.3
			L317.6,273.6z M317.6,193.7l-124,62l-124-62l44.1-22l72.7,36.3c4.5,2.3,9.9,2.3,14.4,0l72.7-36.3L317.6,193.7z M193.6,175.8
			l-124-62l124-62l124,62L193.6,175.8z"/>
	</g>
</g>
<g>
	<g>
		<g>
			<path class="st1" d="M492.6,263.9c-3.1-3.1-6.8-4.6-11.3-4.6H476v-31.8c0-20.3-7.3-37.8-21.9-52.4c-14.6-14.6-32-21.9-52.4-21.9
				c-20.3,0-37.8,7.3-52.4,21.9c-14.6,14.6-21.9,32-21.9,52.4v31.8h-5.3c-4.4,0-8.2,1.5-11.3,4.6c-3.1,3.1-4.6,6.8-4.6,11.3v95.5
				c0,4.4,1.5,8.2,4.6,11.3c3.1,3.1,6.9,4.6,11.3,4.6h159.1c4.4,0,8.2-1.5,11.3-4.6c3.1-3.1,4.6-6.9,4.6-11.3v-95.5
				C497.2,270.7,495.7,267,492.6,263.9z M444.2,259.2h-84.9v-31.8c0-11.7,4.1-21.7,12.4-30c8.3-8.3,18.3-12.4,30-12.4
				c11.7,0,21.7,4.1,30,12.4c8.3,8.3,12.4,18.3,12.4,30V259.2z"/>
		</g>
	</g>
</g>
</svg>
