<svg width="2048" height="2048" viewBox="0 0 2048 2048" fill="none" xmlns="http://www.w3.org/2000/svg">
<path d="M970.78 0.46291C950.251 1.64521 925.315 4.86968 899.734 9.5989C888.233 11.7485 875.335 13.8982 871.036 14.4356C858.461 16.0478 805.257 29.913 779.676 38.1892C746.357 49.0449 720.024 59.4707 693.69 72.3685C690.036 74.1957 686.704 75.7005 686.382 75.7005C685.952 75.7005 677.891 79.8923 668.325 85.0514C658.866 90.2106 649.623 95.0473 647.795 95.6922C646.076 96.3371 635.113 102.679 623.612 109.772C605.447 120.951 595.129 127.829 570.946 144.597C568.259 146.424 559.875 152.873 552.351 158.892C544.827 164.803 536.121 171.682 532.897 174.047C514.84 187.912 478.726 222.306 445.621 257.346C436.27 267.234 414.022 294.104 414.022 295.502C414.022 295.932 411.979 298.726 409.4 301.736C406.82 304.853 400.156 313.881 394.675 321.835C389.086 329.789 384.249 336.56 383.926 336.882C381.992 338.495 369.524 357.626 357.916 376.758C344.695 398.47 333.625 418.139 324.811 435.766C317.717 449.954 297.618 497.461 293.749 509.391C291.814 515.303 289.02 523.472 287.622 527.663C277.304 558.081 259.032 635.576 252.153 678.676C245.274 722.099 244.307 847.208 250.648 886.117C251.831 893.533 253.765 906.108 255.055 914.062C260.214 947.597 272.79 996.823 283.968 1027.46C286.87 1035.41 289.772 1043.9 290.417 1046.37C292.352 1053.36 314.17 1102.05 322.447 1117.74C349.64 1169.23 358.453 1184.92 368.449 1199.43C381.777 1218.88 410.582 1261.44 419.073 1274.24C428.532 1288.53 465.291 1342.38 500.222 1393.33C506.564 1402.57 520.214 1422.67 530.532 1438.04C565.572 1490.27 590.615 1527.25 591.26 1527.79C591.582 1528.11 592.55 1529.61 593.409 1531.23C594.269 1532.84 595.882 1535.2 596.956 1536.38C598.031 1537.57 610.607 1555.84 624.902 1576.91C639.197 1598.08 651.235 1615.6 651.557 1615.92C652.632 1616.67 661.231 1629.68 661.231 1630.43C661.231 1630.97 680.9 1660.2 699.602 1687.4C704.439 1694.49 718.519 1715.02 730.772 1733.08C743.025 1751.03 755.17 1768.76 757.642 1772.31C764.091 1781.55 782.578 1809.07 796.766 1830.35C803.43 1840.34 809.126 1848.84 809.556 1849.16C809.986 1849.48 812.243 1852.6 814.5 1856.14C824.604 1871.41 871.359 1939.98 871.896 1940.52C872.218 1940.84 878.345 1949.55 885.331 1959.86C892.318 1970.18 900.379 1981.68 903.281 1985.34C906.075 1989.1 908.44 1992.54 908.44 1993.18C908.44 1993.83 913.492 1999.42 919.618 2005.54C931.441 2017.37 947.886 2029.19 961.644 2035.75C977.229 2043.16 1002.27 2048 1025.6 2048C1054.08 2048 1079.66 2041.12 1101.37 2027.58C1105.56 2025.11 1110.29 2022.31 1111.9 2021.45C1117.6 2018.44 1133.72 2001.35 1141.89 1989.64C1146.3 1983.19 1162.64 1959.97 1170.59 1948.69C1177.47 1939.01 1224.22 1871.62 1248.08 1837.01C1256.9 1824.11 1264.21 1813.26 1264.21 1812.83C1264.21 1812.4 1269.58 1804.55 1275.92 1795.42C1282.37 1786.28 1299.57 1761.45 1314.08 1740.39C1328.59 1719.21 1342.88 1698.9 1345.68 1695.14C1348.47 1691.37 1359.01 1676 1369 1661.06C1397.7 1618.61 1444.24 1550.68 1451.66 1540.68C1456.28 1534.45 1471 1513.06 1496.05 1476.41C1515.93 1447.28 1560 1383.22 1584.61 1347.65C1623.95 1290.79 1634.91 1274.24 1652.65 1245.11C1662.54 1228.88 1676.72 1205.66 1684.14 1193.52C1696.61 1173.31 1710.9 1147.62 1726.49 1117.74C1737.13 1097.21 1758.62 1047.66 1758.62 1043.47C1758.62 1042.83 1760.56 1037.02 1762.92 1030.68C1774.53 999.511 1788.29 945.232 1794.09 908.151C1801.4 861.503 1801.83 856.022 1802.37 793.467C1802.8 753.806 1802.59 732.525 1801.73 725.216C1799.36 704.794 1791.84 653.31 1789.15 638.908C1783.02 606.878 1771.09 559.801 1763.78 539.486C1761.42 532.93 1759.05 525.299 1758.52 522.397C1757.01 514.443 1736.48 463.819 1725.95 441.785C1705.31 399.007 1676.72 352.252 1648.35 314.634C1641.04 304.96 1635.02 296.684 1635.02 296.254C1634.91 294.104 1611.7 267.126 1592.46 246.812C1585.79 239.933 1579.13 232.625 1577.52 230.69C1571.39 223.274 1527.11 183.183 1516.57 175.337C1514.32 173.724 1510.99 170.93 1509.05 169.103C1496.58 157.602 1446.28 122.455 1420.38 107.193C1382.65 85.0514 1322.68 56.7836 1288.93 45.283C1282.69 43.2409 1272.91 39.6939 1267 37.6518C1261.2 35.5021 1255.39 33.5674 1254.1 33.245C1250.56 32.4926 1241.1 29.913 1228.2 26.3661C1221.75 24.5389 1215.41 22.8192 1214.23 22.4968C1213.04 22.1743 1208.42 21.0995 1203.91 19.9172C1199.39 18.8424 1193.81 17.6601 1191.55 17.2301C1189.18 16.9077 1186.17 16.3703 1184.67 16.0478C1183.16 15.7254 1180.05 15.188 1177.68 14.8655C1175.32 14.5431 1166.08 12.9309 1157.26 11.2111C1135.66 7.01933 1099.44 1.7527 1087.4 1.00032C1070.31 0.0329807 986.902 -0.396948 970.78 0.46291ZM1065.36 56.4612C1092.45 57.9659 1126.09 61.9428 1151.89 66.5645C1195.42 74.5182 1256.79 91.2854 1280.87 101.926C1282.69 102.786 1288.17 104.936 1293.23 106.87C1318.7 116.436 1372.76 143.844 1397.81 159.752C1404.15 163.728 1409.63 167.06 1409.95 167.06C1411.13 167.06 1426.5 177.379 1443.16 189.417C1518.94 244.233 1582.78 311.409 1633.73 390.086C1641.47 402.124 1648.99 414.592 1650.5 417.709C1651.89 420.826 1655.66 428.135 1658.88 433.831C1673.39 459.197 1707.68 538.519 1715.95 565.82C1725.63 597.634 1739.6 663.091 1743.04 693.186C1748.2 737.684 1749.38 809.697 1745.62 856.452C1738.42 948.027 1718 1014.88 1668.66 1110.22C1649.1 1147.94 1650.82 1144.83 1623.3 1190.29C1610.62 1211.25 1598.58 1231.24 1596.65 1234.68C1594.61 1238.12 1587.94 1248.01 1581.92 1256.72C1575.9 1265.42 1566.12 1279.5 1560.32 1288.1C1554.52 1296.7 1549.46 1303.9 1549.03 1304.22C1547.96 1305.08 1541.51 1314.76 1541.51 1315.51C1541.51 1316.26 1536.67 1322.92 1533.99 1325.93C1533.02 1326.9 1530.01 1331.52 1527.22 1336.14C1524.42 1340.77 1515.82 1353.45 1508.19 1364.41C1500.56 1375.38 1489.38 1391.5 1483.26 1400.42C1452.84 1444.38 1438.87 1464.69 1432.95 1472.97C1429.41 1478.02 1416.94 1496.08 1405.44 1513.28C1393.83 1530.37 1380.82 1549.5 1376.53 1555.73C1335.04 1615.28 1279.25 1696.43 1279.25 1697.18C1279.25 1697.61 1276.89 1701.05 1274.09 1705.02C1271.19 1708.89 1260.87 1723.73 1251.09 1737.91C1241.31 1752.1 1229.7 1768.87 1225.41 1775.1C1202.94 1807.56 1173.92 1849.7 1162.64 1866.35C1099.11 1960.29 1089.98 1971.37 1065.9 1983.08C1050.96 1990.39 1041.93 1992.32 1023.45 1992.43C1009.15 1992.43 1007.11 1992.22 998.725 1989.42C987.762 1985.88 972.284 1978.35 965.513 1973.41C962.826 1971.37 958.312 1967.39 955.625 1964.49C944.984 1953.2 942.834 1950.19 900.056 1887.53C858.138 1826.16 862.438 1832.5 803.107 1747.05C787.415 1724.48 772.367 1702.55 769.68 1698.36C766.993 1694.06 754.633 1676 742.272 1658.16C729.912 1640.32 707.556 1607.97 692.508 1586.15C677.461 1564.44 664.885 1546.38 664.455 1546.06C664.025 1545.74 659.619 1539.18 654.459 1531.55C645.323 1517.9 620.387 1481.25 612.756 1470.39C610.714 1467.38 601.793 1454.48 592.98 1441.8C584.166 1429.12 571.698 1411.17 565.357 1402.03C549.449 1379.14 525.373 1343.78 515.485 1328.94C510.971 1322.17 506.349 1315.62 505.381 1314.43C501.727 1310.35 463.786 1254.24 459.164 1246.18C456.585 1241.78 450.78 1232.1 446.266 1224.69C437.56 1210.61 406.283 1157.94 392.095 1133.65C370.814 1097.1 341.793 1032.83 329.325 994.674C319.76 965.331 308.796 917.824 305.572 891.491C302.67 868.275 302.24 860.214 301.165 818.618C300.198 781.859 300.305 768.209 301.703 739.618C303.637 698.668 305.034 686.63 311.483 652.343C325.026 580.867 343.298 525.944 375.113 461.024C380.595 449.739 387.688 435.981 390.913 430.284C394.137 424.588 397.684 417.817 398.974 415.237C404.241 403.629 441.967 348.276 455.617 332.153C459.057 327.961 464.216 321.727 467.118 318.18C474.749 308.722 496.03 285.291 511.185 269.384C540.098 239.074 591.475 197.155 629.523 172.757C672.839 145.027 714.972 123.1 762.264 103.968C778.601 97.4119 805.687 87.846 812.243 86.4487C814.608 86.0188 826.753 82.9018 839.114 79.5699C911.987 60.1156 990.449 52.0544 1065.36 56.4612Z" fill="url(#paint0_linear_929_2050)"/>
<path d="M997.662 229.711C997.339 229.926 991.32 230.463 984.226 230.893C943.491 233.043 902.11 240.781 857.935 254.539C852.883 256.151 847.401 257.656 845.574 257.979C843.854 258.301 841.92 258.838 841.275 259.268C840.737 259.698 838.265 260.773 835.901 261.525C831.172 263.138 825.153 265.502 822.251 267.115C821.176 267.652 819.886 268.082 819.241 268.082C818.059 268.082 812.47 270.446 799.142 276.788C794.198 279.153 790.113 280.98 789.791 280.98C788.931 280.98 754.214 299.574 749.915 302.369C744.756 305.701 743.788 306.238 735.942 310.86C732.718 312.794 723.259 319.028 714.983 324.833C706.707 330.529 699.076 335.688 698.108 336.333C696.281 337.408 684.458 346.759 669.303 359.119C657.695 368.578 614.595 412.216 602.557 426.618C581.06 452.521 563.326 477.995 547.848 505.08C543.764 512.174 539.787 518.623 539.035 519.375C538.282 520.128 537.637 521.525 537.637 522.385C537.637 523.245 534.52 530.124 530.759 537.647C502.383 594.291 484.864 654.803 476.695 723.807C475.083 737.242 474.76 748.528 474.76 782.922C474.76 820.648 475.083 827.527 477.232 844.724C486.476 917.812 504.425 975.315 540.109 1045.72C549.998 1065.17 572.999 1100.85 588.906 1121.28C609.973 1148.15 648.129 1188.13 670.378 1206.51C703.483 1233.92 745.508 1261.43 780.87 1279.06C792.478 1284.86 816.984 1295.61 818.489 1295.61C819.241 1295.61 824.185 1297.33 829.559 1299.48C856.537 1310.44 902.97 1323.02 938.009 1328.82C970.469 1334.2 988.418 1335.6 1022.92 1335.6C1090.2 1335.49 1146.74 1325.6 1211.55 1302.49C1238.74 1292.82 1244.33 1290.45 1269.05 1277.88C1301.08 1261.43 1326.88 1245.31 1359.77 1220.91C1379.12 1206.62 1414.8 1172.87 1435.97 1148.9C1442.21 1141.81 1447.8 1135.46 1448.55 1134.93C1451.56 1132.13 1469.29 1108.59 1478.43 1095.16C1508.42 1050.77 1534.21 996.704 1550.01 945.22C1566.03 892.661 1572.15 850.958 1573.34 785.609L1573.98 745.841L1570.65 719.507C1566.57 687.908 1562.48 666.626 1555.39 639.971C1545.39 602.567 1534.54 572.687 1519.38 541.087C1506.05 513.356 1502.61 507.445 1480.9 473.48C1471.23 458.433 1449.41 430.38 1435.76 415.44C1425.76 404.477 1402.98 381.153 1397.5 376.209C1394.27 373.307 1388.47 367.933 1384.6 364.171C1377.4 357.185 1364.39 346.544 1363.21 346.544C1362.78 346.544 1360.84 345.039 1358.8 343.104C1352.25 337.085 1318.71 314.407 1299.69 303.014C1261.64 280.227 1230.15 266.255 1189.52 254.109C1175.97 250.025 1163.61 246.478 1162.11 246.155C1158.89 245.511 1149.75 243.468 1133.3 239.707C1122.88 237.234 1095.36 233.15 1075.05 231C1067.85 230.248 998.306 229.066 997.662 229.711ZM1053.55 284.742C1119.01 289.578 1164.15 300.542 1223.91 325.8C1245.95 335.151 1267.98 347.081 1293.02 363.419C1311.08 375.134 1320.65 384.378 1327.63 396.631L1332.47 405.122L1332.9 417.805C1333.11 424.898 1332.68 433.39 1332.04 436.722C1330.96 441.988 1318.71 472.298 1306.78 499.169C1304.85 503.576 1297.75 520.235 1291.09 536.25C1280.55 561.831 1272.6 580.425 1239.71 658.242C1235.52 668.023 1221.65 700.59 1208.86 730.793C1180.38 797.539 1162.86 838.813 1158.56 849.561C1151.47 866.973 1144.05 884.815 1130.19 917.275C1122.23 935.869 1113.31 956.936 1110.3 964.03C1107.4 971.123 1104.07 978.862 1102.99 981.227C1101.92 983.591 1094.18 1001.76 1085.8 1021.53C1077.41 1041.31 1069.67 1059.47 1068.6 1061.84C1067.53 1064.2 1061.29 1078.93 1054.73 1094.51C1040.44 1128.37 1035.82 1138.47 1033.45 1141.05C1030.87 1143.85 1024.42 1143.63 1021.52 1140.52C1020.34 1139.23 1017.12 1132.78 1014.43 1126.33C1011.74 1119.77 1005.72 1105.26 1000.89 1094.08C996.049 1082.8 989.385 1067.32 986.161 1059.69C975.843 1035.18 931.882 932.107 913.718 889.867C904.152 867.403 895.016 845.369 893.404 840.962C891.792 836.556 881.151 811.082 869.758 784.534C858.472 757.879 846.542 729.826 843.21 722.194C837.298 708.222 817.629 662.004 787.426 591.603C778.72 571.182 770.981 552.587 770.337 550.223C769.584 547.858 763.135 532.381 756.041 515.828C731.965 459.615 722.722 437.366 721.647 433.067C718.208 420.277 719.282 398.995 723.582 390.827C727.881 382.658 736.265 375.564 756.364 362.774C762.275 359.012 768.294 355.035 769.799 354.068C781.945 346.007 810.965 331.604 833.751 322.36C888.245 300.219 934.784 288.933 988.526 284.742C1012.6 282.914 1029.26 282.914 1053.55 284.742ZM627.063 502.071C627.923 503.146 634.371 517.548 641.358 534.1C648.344 550.653 655.653 567.742 657.695 572.042C659.63 576.448 661.242 580.533 661.242 581.178C661.242 581.93 667.369 596.763 674.785 614.175C682.201 631.587 695.851 663.509 704.987 685.113C714.123 706.717 723.904 729.611 726.806 736.167C729.601 742.616 737.339 760.781 744.003 776.473C750.667 792.165 757.761 808.825 759.803 813.554C767.22 830.429 783.772 869.983 785.707 875.572C786.889 878.689 791.081 888.792 795.057 897.928C799.034 907.064 807.74 927.593 814.404 943.608C825.905 970.801 840.308 1004.87 854.603 1038.73C858.042 1046.68 867.93 1070.11 876.637 1090.86C885.45 1111.5 896.091 1136.75 900.498 1146.86C904.904 1157.07 908.451 1165.77 908.451 1166.42C908.451 1167.06 912.106 1176.2 916.62 1186.73C937.257 1235.42 949.295 1264.44 949.295 1265.62C949.295 1268.85 944.673 1274.12 940.696 1275.3C924.896 1280.03 854.388 1257.13 800.432 1229.73C793.338 1226.18 785.169 1221.99 782.16 1220.59C766.682 1212.85 738.199 1193.83 719.175 1178.46C694.454 1158.57 659.2 1123.96 641.895 1102.68C613.197 1067.32 595.893 1040.02 575.794 998.424C535.058 914.05 520.978 833.224 529.684 733.48C533.876 684.791 545.591 637.713 564.938 592.033C575.041 568.065 595.893 529.156 607.071 513.464C615.455 501.748 622.978 497.449 627.063 502.071ZM1440.49 515.076C1447.8 522.492 1455 534.638 1469.19 563.121C1500.36 625.46 1514.44 676.514 1519.49 744.766C1526.9 845.047 1508.31 933.612 1461.45 1020.46C1426.3 1085.7 1378.79 1141.05 1319.57 1185.66C1292.81 1205.76 1279.16 1214.14 1246.59 1230.37C1207.04 1249.93 1175.01 1262.19 1140.61 1270.78C1119.33 1276.16 1115.78 1276.27 1111.49 1272.07C1105.9 1266.48 1106.54 1264.12 1125.35 1219.84C1132.12 1203.82 1138.57 1188.13 1139.75 1184.91C1141.9 1178.78 1154.59 1148.15 1159.53 1137.08C1161.03 1133.53 1169.53 1113.64 1178.23 1093.01C1187.05 1072.26 1201.99 1037.01 1211.55 1014.55C1236.38 956.076 1248.31 927.808 1256.69 907.601C1272.71 868.693 1293.67 818.606 1295.92 813.554C1297.32 810.545 1303.56 795.927 1309.79 780.987C1324.19 746.808 1361.38 659.747 1365.04 651.794C1366.54 648.569 1369.55 641.475 1371.7 636.209C1400.29 566.13 1423.72 511.959 1426.19 510.132C1430.17 507.23 1434.15 508.52 1440.49 515.076Z" fill="url(#paint1_linear_929_2050)"/>
<path d="M925.003 1410.62C911.245 1414.17 897.487 1422.98 888.996 1433.51C883.407 1440.39 877.066 1453.83 874.594 1463.82C872.229 1473.39 872.229 1491.45 874.594 1500.37C876.743 1508.54 882.655 1520.79 886.739 1525.63L889.856 1529.28L892.866 1524.55C894.478 1521.86 896.95 1518 898.24 1515.95C901.787 1510.69 901.679 1508.86 897.595 1500.37C894.048 1493.06 893.94 1492.52 893.94 1479.41C893.94 1466.83 894.155 1465.54 897.057 1459.74C900.927 1451.89 910.923 1440.93 917.802 1437.28C930.699 1430.29 946.714 1428.68 960.902 1432.98C969.716 1435.77 968.963 1435.99 978.099 1427.6C985.73 1420.83 985.515 1418.9 976.917 1414.81C973.155 1413.09 966.706 1410.94 962.622 1410.08C952.196 1407.83 934.461 1408.15 925.003 1410.62Z" fill="#18403B"/>
<path d="M671.13 1411.93C670.378 1412.68 669.84 1413.87 669.84 1414.62C669.84 1415.91 681.771 1453.1 703.482 1519.74L713.371 1549.83L722.292 1550.15C730.675 1550.48 731.213 1550.37 732.287 1547.9C733.577 1545.1 729.6 1527.8 723.044 1507.38C721.109 1501.14 716.273 1485.88 712.296 1473.52C708.426 1461.05 702.3 1441.92 698.753 1430.74L692.304 1410.64H682.416C676.074 1410.64 671.99 1411.07 671.13 1411.93Z" fill="#18403B"/>
<path d="M839.324 1422.16C837.175 1428.6 830.618 1449.67 824.599 1469.23C818.58 1488.69 813.099 1506.64 812.346 1509L810.949 1513.3L804.392 1496.64C800.846 1487.5 793.214 1468.16 787.625 1453.65C781.929 1439.14 775.91 1424.2 774.297 1420.33C771.288 1413.45 771.288 1413.34 767.096 1413.34H762.797L758.927 1423.02C756.778 1428.28 751.296 1442.58 746.675 1454.72C742.053 1466.87 736.464 1481.7 734.099 1487.83L729.8 1498.9L733.992 1512.55C736.786 1521.9 738.613 1526.2 739.688 1526.2C740.978 1526.2 751.189 1500.72 765.484 1461.71C766.666 1458.59 766.989 1459.24 773.653 1476.22C777.522 1486 782.251 1498.79 784.293 1504.7C786.335 1510.61 791.065 1523.19 794.827 1532.65L801.705 1549.84L810.411 1550.17C817.828 1550.38 819.225 1550.17 820.085 1548.55C820.73 1547.48 826.426 1529.64 832.983 1509C839.539 1488.26 848.998 1458.38 854.049 1442.47C859.101 1426.56 863.293 1412.8 863.293 1412.05C863.293 1410.98 860.821 1410.65 853.189 1410.65H843.086L839.324 1422.16Z" fill="#18403B"/>
<path d="M1040.64 1480.5V1550.37H1050.31H1059.99V1491.14V1431.92L1080.73 1432.35C1103.09 1432.78 1105.13 1433.21 1111.9 1439.55C1116.31 1443.53 1118.03 1447.4 1118.03 1453.1C1118.03 1459.33 1115.98 1464.06 1111.47 1468.36C1105.45 1474.05 1100.83 1475.45 1084.92 1475.99L1070.63 1476.53L1070.95 1486.85L1071.27 1497.16L1080.09 1497.7L1089.01 1498.24L1104.38 1524.03L1119.75 1549.83L1130.17 1550.15L1140.6 1550.47V1547.79C1140.6 1546.18 1134.58 1534.89 1126.63 1521.45C1118.99 1508.56 1112.44 1497.27 1112.12 1496.41C1111.79 1495.55 1113.41 1494.15 1116.95 1492.43C1124.26 1488.99 1133.29 1479.11 1136.41 1471.15C1138.34 1466.21 1138.88 1462.88 1138.77 1455.25C1138.66 1436.87 1130.71 1423 1115.88 1415.48C1107.6 1411.18 1102.44 1410.64 1071.06 1410.64H1040.64V1480.5Z" fill="#18403B"/>
<path d="M1163.4 1480.18L1163.72 1549.83L1173.71 1550.15L1183.6 1550.47L1183.39 1480.83L1183.06 1411.18L1173.07 1410.86L1163.18 1410.53L1163.4 1480.18Z" fill="#18403B"/>
<path d="M1259.48 1412.4C1259.16 1413.36 1258.84 1443.57 1258.84 1479.47C1258.84 1526.87 1259.16 1545.68 1260.13 1547.72L1261.31 1550.4H1288.83C1321.61 1550.4 1326.77 1549.54 1342.35 1541.81C1351.38 1537.29 1354.5 1535.03 1359.77 1529.34C1367.07 1521.28 1372.99 1510.1 1375.57 1499.35C1378.04 1488.71 1377.18 1468.61 1373.95 1459.04C1367.93 1441.74 1354.18 1425.51 1339.13 1418.2C1327.09 1412.4 1318.49 1410.68 1301.08 1410.68H1286.79V1419.38C1286.79 1432.17 1286.68 1432.17 1300.76 1432.17C1314.84 1432.17 1321.61 1433.46 1330.53 1437.87C1347.94 1446.36 1355.25 1460.12 1354.28 1482.15C1353.85 1491.83 1353.42 1493.76 1349.88 1501.18C1343.32 1514.61 1330.64 1524.61 1316.02 1527.73C1312.9 1528.37 1303.55 1528.91 1295.38 1528.91H1280.34V1471.83C1280.34 1434.65 1279.91 1414.12 1279.26 1412.72C1278.29 1411 1276.9 1410.68 1269.16 1410.68C1261.96 1410.68 1260.02 1411 1259.48 1412.4Z" fill="#18403B"/>
<path d="M985.942 1431.81C981.75 1435.58 979.386 1438.69 979.386 1440.2C979.386 1441.49 981.32 1444.6 983.793 1447.29C986.157 1449.87 989.919 1455.57 992.069 1459.97C995.938 1467.82 996.046 1468.25 996.046 1480.5C996.046 1492.76 995.938 1493.08 992.069 1500.93C986.91 1511.24 982.61 1516.4 974.764 1521.45C957.029 1532.96 936.178 1533.49 917.798 1522.85C914.359 1520.81 911.135 1519.2 910.705 1519.2C909.63 1519.2 901.569 1532.53 900.494 1535.96C899.956 1537.79 900.924 1538.87 905.438 1542.09C914.574 1548.33 926.182 1551.66 940.692 1552.19C960.039 1553.05 973.152 1549.51 988.522 1539.4C995.723 1534.57 998.088 1532.2 1003.68 1524.14C1013.03 1510.71 1016.14 1501.25 1016.79 1484.05C1017.33 1468.04 1015.5 1458.36 1009.37 1446.11C1005.5 1438.37 995.508 1425.69 993.359 1425.69C992.821 1425.69 989.489 1428.37 985.942 1431.81Z" fill="#18403B"/>
<path d="M1188.98 1537.94C1188.98 1542.88 1189.3 1547.72 1189.63 1548.68C1190.16 1550.19 1193.6 1550.4 1217.03 1550.4H1243.8V1541.7C1243.8 1527.94 1245.95 1528.91 1215.31 1528.91H1188.98V1537.94Z" fill="#18403B"/>
<defs>
<linearGradient id="paint0_linear_929_2050" x1="1233.5" y1="2127.5" x2="565" y2="32.5001" gradientUnits="userSpaceOnUse">
<stop offset="0.182292" stop-color="#245854"/>
<stop offset="0.348958" stop-color="#70F0F1"/>
<stop offset="0.848958" stop-color="#18403B"/>
</linearGradient>
<linearGradient id="paint1_linear_929_2050" x1="1172" y1="1378.53" x2="884.938" y2="201.91" gradientUnits="userSpaceOnUse">
<stop offset="0.182292" stop-color="#245854"/>
<stop offset="0.348958" stop-color="#70F0F1"/>
<stop offset="0.848958" stop-color="#18403B"/>
</linearGradient>
</defs>
</svg>
