<?xml version="1.0" encoding="utf-8"?>
<!-- Generator: Adobe Illustrator 26.3.1, SVG Export Plug-In . SVG Version: 6.00 Build 0)  -->
<svg version="1.1" id="Layer_1" xmlns="http://www.w3.org/2000/svg" xmlns:xlink="http://www.w3.org/1999/xlink" x="0px" y="0px"
	 viewBox="0 0 2048 2048" style="enable-background:new 0 0 2048 2048;" xml:space="preserve">
<style type="text/css">
	.st0{fill:#FFFFFF;}
</style>
<path class="st0" d="M970.8,0.5c-20.5,1.2-45.5,4.4-71,9.1c-11.5,2.1-24.4,4.3-28.7,4.8c-12.6,1.6-65.8,15.5-91.4,23.8
	c-33.3,10.9-59.7,21.3-86,34.2c-3.7,1.8-7,3.3-7.3,3.3c-0.4,0-8.5,4.2-18.1,9.4c-9.5,5.2-18.7,10-20.5,10.6
	c-1.7,0.6-12.7,7-24.2,14.1c-18.2,11.2-28.5,18.1-52.7,34.8c-2.7,1.8-11.1,8.3-18.6,14.3c-7.5,5.9-16.2,12.8-19.5,15.2
	c-18.1,13.9-54.2,48.3-87.3,83.3c-9.4,9.9-31.6,36.8-31.6,38.2c0,0.4-2,3.2-4.6,6.2c-2.6,3.1-9.2,12.1-14.7,20.1
	c-5.6,8-10.4,14.7-10.7,15c-1.9,1.6-14.4,20.7-26,39.9c-13.2,21.7-24.3,41.4-33.1,59c-7.1,14.2-27.2,61.7-31.1,73.6
	c-1.9,5.9-4.7,14.1-6.1,18.3c-10.3,30.4-28.6,107.9-35.5,151c-6.9,43.4-7.8,168.5-1.5,207.4c1.2,7.4,3.1,20,4.4,27.9
	c5.2,33.5,17.7,82.8,28.9,113.4c2.9,8,5.8,16.4,6.4,18.9c1.9,7,23.8,55.7,32,71.4c27.2,51.5,36,67.2,46,81.7
	c13.3,19.4,42.1,62,50.6,74.8c9.5,14.3,46.2,68.1,81.1,119.1c6.3,9.2,20,29.3,30.3,44.7c35,52.2,60.1,89.2,60.7,89.8
	c0.3,0.3,1.3,1.8,2.1,3.4c0.9,1.6,2.5,4,3.5,5.2c1.1,1.2,13.7,19.5,27.9,40.5c14.3,21.2,26.3,38.7,26.7,39
	c1.1,0.8,9.7,13.8,9.7,14.5c0,0.5,19.7,29.8,38.4,57c4.8,7.1,18.9,27.6,31.2,45.7c12.3,18,24.4,35.7,26.9,39.2
	c6.4,9.2,24.9,36.8,39.1,58c6.7,10,12.4,18.5,12.8,18.8c0.4,0.3,2.7,3.4,4.9,7c10.1,15.3,56.9,83.8,57.4,84.4
	c0.3,0.3,6.4,9,13.4,19.3c7,10.3,15,21.8,18,25.5c2.8,3.8,5.2,7.2,5.2,7.8c0,0.6,5.1,6.2,11.2,12.4c11.8,11.8,28.3,23.6,42,30.2
	c15.6,7.4,40.6,12.2,64,12.2c28.5,0,54.1-6.9,75.8-20.4c4.2-2.5,8.9-5.3,10.5-6.1c5.7-3,21.8-20.1,30-31.8
	c4.4-6.5,20.8-29.7,28.7-41c6.9-9.7,53.6-77.1,77.5-111.7c8.8-12.9,16.1-23.8,16.1-24.2c0-0.4,5.4-8.3,11.7-17.4
	c6.4-9.1,23.6-34,38.2-55c14.5-21.2,28.8-41.5,31.6-45.2c2.8-3.8,13.3-19.1,23.3-34.1c28.7-42.5,75.2-110.4,82.7-120.4
	c4.6-6.2,19.3-27.6,44.4-64.3c19.9-29.1,63.9-93.2,88.6-128.8c39.3-56.9,50.3-73.4,68-102.5c9.9-16.2,24.1-39.4,31.5-51.6
	c12.5-20.2,26.8-45.9,42.3-75.8c10.6-20.5,32.1-70.1,32.1-74.3c0-0.6,1.9-6.4,4.3-12.8c11.6-31.2,25.4-85.4,31.2-122.5
	c7.3-46.6,7.7-52.1,8.3-114.7c0.4-39.7,0.2-60.9-0.6-68.3c-2.4-20.4-9.9-71.9-12.6-86.3c-6.1-32-18.1-79.1-25.4-99.4
	c-2.4-6.6-4.7-14.2-5.3-17.1c-1.5-8-22-58.6-32.6-80.6c-20.6-42.8-49.2-89.5-77.6-127.2c-7.3-9.7-13.3-18-13.3-18.4
	c-0.1-2.1-23.3-29.1-42.6-49.4c-6.7-6.9-13.3-14.2-14.9-16.1c-6.1-7.4-50.4-47.5-61-55.4c-2.2-1.6-5.6-4.4-7.5-6.2
	c-12.5-11.5-62.8-46.6-88.7-61.9c-37.7-22.1-97.7-50.4-131.4-61.9c-6.2-2-16-5.6-21.9-7.6c-5.8-2.1-11.6-4.1-12.9-4.4
	c-3.5-0.8-13-3.3-25.9-6.9c-6.4-1.8-12.8-3.5-14-3.9c-1.2-0.3-5.8-1.4-10.3-2.6c-4.5-1.1-10.1-2.3-12.4-2.7
	c-2.4-0.3-5.4-0.9-6.9-1.2c-1.5-0.3-4.6-0.9-7-1.2c-2.4-0.3-11.6-1.9-20.4-3.7c-21.6-4.2-57.8-9.5-69.9-10.2
	C1070.3,0,986.9-0.4,970.8,0.5z M1065.4,56.5c27.1,1.5,60.7,5.5,86.5,10.1c43.5,8,104.9,24.7,129,35.4c1.8,0.9,7.3,3,12.4,4.9
	c25.5,9.6,79.5,37,104.6,52.9c6.3,4,11.8,7.3,12.1,7.3c1.2,0,16.6,10.3,33.2,22.4c75.8,54.8,139.6,122,190.6,200.7
	c7.7,12,15.3,24.5,16.8,27.6c1.4,3.1,5.2,10.4,8.4,16.1c14.5,25.4,48.8,104.7,57.1,132c9.7,31.8,23.7,97.3,27.1,127.4
	c5.2,44.5,6.3,116.5,2.6,163.3c-7.2,91.6-27.6,158.4-77,253.8c-19.6,37.7-17.8,34.6-45.4,80.1c-12.7,21-24.7,40.9-26.7,44.4
	c-2,3.4-8.7,13.3-14.7,22c-6,8.7-15.8,22.8-21.6,31.4c-5.8,8.6-10.9,15.8-11.3,16.1c-1.1,0.9-7.5,10.5-7.5,11.3s-4.8,7.4-7.5,10.4
	c-1,1-4,5.6-6.8,10.2c-2.8,4.6-11.4,17.3-19,28.3c-7.6,11-18.8,27.1-24.9,36c-30.4,44-44.4,64.3-50.3,72.5
	c-3.5,5.1-16,23.1-27.5,40.3c-11.6,17.1-24.6,36.2-28.9,42.4c-41.5,59.6-97.3,140.7-97.3,141.5c0,0.4-2.4,3.9-5.2,7.8
	c-2.9,3.9-13.2,18.7-23,32.9c-9.8,14.2-21.4,31-25.7,37.2c-22.5,32.5-51.5,74.6-62.8,91.2c-63.5,93.9-72.7,105-96.7,116.7
	c-14.9,7.3-24,9.2-42.5,9.4c-14.3,0-16.3-0.2-24.7-3c-11-3.5-26.4-11.1-33.2-16c-2.7-2-7.2-6-9.9-8.9c-10.6-11.3-12.8-14.3-55.6-77
	c-41.9-61.4-37.6-55-96.9-140.5c-15.7-22.6-30.7-44.5-33.4-48.7c-2.7-4.3-15-22.4-27.4-40.2c-12.4-17.8-34.7-50.2-49.8-72
	c-15-21.7-27.6-39.8-28.1-40.1c-0.4-0.3-4.8-6.9-10-14.5c-9.1-13.7-34.1-50.3-41.7-61.2c-2-3-11-15.9-19.8-28.6
	c-8.8-12.7-21.3-30.6-27.6-39.8c-15.9-22.9-40-58.2-49.9-73.1c-4.5-6.8-9.1-13.3-10.1-14.5c-3.7-4.1-41.6-60.2-46.2-68.2
	c-2.6-4.4-8.4-14.1-12.9-21.5c-8.7-14.1-40-66.8-54.2-91c-21.3-36.6-50.3-100.8-62.8-139c-9.6-29.3-20.5-76.9-23.8-103.2
	c-2.9-23.2-3.3-31.3-4.4-72.9c-1-36.8-0.9-50.4,0.5-79c1.9-40.9,3.3-53,9.8-87.3c13.5-71.5,31.8-126.4,63.6-191.3
	c5.5-11.3,12.6-25,15.8-30.7c3.2-5.7,6.8-12.5,8.1-15c5.3-11.6,43-67,56.6-83.1c3.4-4.2,8.6-10.4,11.5-14
	c7.6-9.5,28.9-32.9,44.1-48.8c28.9-30.3,80.3-72.2,118.3-96.6C672.8,145,715,123.1,762.3,104c16.3-6.6,43.4-16.1,50-17.5
	c2.4-0.4,14.5-3.5,26.9-6.9C912,60.1,990.4,52.1,1065.4,56.5z"/>
<path class="st0" d="M997.7,229.7c-0.3,0.2-6.3,0.8-13.4,1.2c-40.7,2.1-82.1,9.9-126.3,23.6c-5.1,1.6-10.5,3.1-12.4,3.4
	c-1.7,0.3-3.7,0.9-4.3,1.3c-0.5,0.4-3,1.5-5.4,2.3c-4.7,1.6-10.7,4-13.7,5.6c-1.1,0.5-2.4,1-3,1c-1.2,0-6.8,2.4-20.1,8.7
	c-4.9,2.4-9,4.2-9.4,4.2c-0.9,0-35.6,18.6-39.9,21.4c-5.2,3.3-6.1,3.9-14,8.5c-3.2,1.9-12.7,8.2-21,14c-8.3,5.7-15.9,10.9-16.9,11.5
	c-1.8,1.1-13.6,10.4-28.8,22.8c-11.6,9.5-54.7,53.1-66.7,67.5c-21.5,25.9-39.2,51.4-54.7,78.5c-4.1,7.1-8.1,13.5-8.8,14.3
	c-0.8,0.8-1.4,2.2-1.4,3s-3.1,7.7-6.9,15.3c-28.4,56.6-45.9,117.2-54.1,186.2c-1.6,13.4-1.9,24.7-1.9,59.1c0,37.7,0.3,44.6,2.5,61.8
	c9.2,73.1,27.2,130.6,62.9,201c9.9,19.5,32.9,55.1,48.8,75.6c21.1,26.9,59.2,66.8,81.5,85.2c33.1,27.4,75.1,54.9,110.5,72.6
	c11.6,5.8,36.1,16.5,37.6,16.5c0.8,0,5.7,1.7,11.1,3.9c27,11,73.4,23.5,108.4,29.3c32.5,5.4,50.4,6.8,84.9,6.8
	c67.3-0.1,123.8-10,188.6-33.1c27.2-9.7,32.8-12,57.5-24.6c32-16.4,57.8-32.6,90.7-57c19.3-14.3,55-48,76.2-72
	c6.2-7.1,11.8-13.4,12.6-14c3-2.8,20.7-26.3,29.9-39.8c30-44.4,55.8-98.5,71.6-149.9c16-52.6,22.1-94.3,23.3-159.6l0.6-39.8
	l-3.3-26.3c-4.1-31.6-8.2-52.9-15.3-79.5c-10-37.4-20.8-67.3-36-98.9c-13.3-27.7-16.8-33.6-38.5-67.6c-9.7-15-31.5-43.1-45.1-58
	c-10-11-32.8-34.3-38.3-39.2c-3.2-2.9-9-8.3-12.9-12c-7.2-7-20.2-17.6-21.4-17.6c-0.4,0-2.4-1.5-4.4-3.4c-6.6-6-40.1-28.7-59.1-40.1
	c-38-22.8-69.5-36.8-110.2-48.9c-13.6-4.1-25.9-7.6-27.4-8c-3.2-0.6-12.4-2.7-28.8-6.4c-10.4-2.5-37.9-6.6-58.2-8.7
	C1067.8,230.2,998.3,229.1,997.7,229.7z M1053.6,284.7c65.5,4.8,110.6,15.8,170.4,41.1c22,9.4,44.1,21.3,69.1,37.6
	c18.1,11.7,27.6,21,34.6,33.2l4.8,8.5l0.4,12.7c0.2,7.1-0.2,15.6-0.9,18.9c-1.1,5.3-13.3,35.6-25.3,62.4c-1.9,4.4-9,21.1-15.7,37.1
	c-10.5,25.6-18.5,44.2-51.4,122c-4.2,9.8-18.1,42.3-30.8,72.6c-28.5,66.7-46,108-50.3,118.8c-7.1,17.4-14.5,35.3-28.4,67.7
	c-8,18.6-16.9,39.7-19.9,46.8c-2.9,7.1-6.2,14.8-7.3,17.2c-1.1,2.4-8.8,20.5-17.2,40.3c-8.4,19.8-16.1,37.9-17.2,40.3
	c-1.1,2.4-7.3,17.1-13.9,32.7c-14.3,33.9-18.9,44-21.3,46.5c-2.6,2.8-9,2.6-11.9-0.5c-1.2-1.3-4.4-7.7-7.1-14.2
	c-2.7-6.6-8.7-21.1-13.5-32.2c-4.8-11.3-11.5-26.8-14.7-34.4c-10.3-24.5-54.3-127.6-72.4-169.8c-9.6-22.5-18.7-44.5-20.3-48.9
	c-1.6-4.4-12.3-29.9-23.6-56.4c-11.3-26.7-23.2-54.7-26.5-62.3c-5.9-14-25.6-60.2-55.8-130.6c-8.7-20.4-16.4-39-17.1-41.4
	c-0.8-2.4-7.2-17.8-14.3-34.4c-24.1-56.2-33.3-78.5-34.4-82.8c-3.4-12.8-2.4-34.1,1.9-42.2c4.3-8.2,12.7-15.3,32.8-28.1
	c5.9-3.8,11.9-7.7,13.4-8.7c12.1-8.1,41.2-22.5,64-31.7c54.5-22.1,101-33.4,154.8-37.6C1012.6,282.9,1029.3,282.9,1053.6,284.7z
	 M627.1,502.1c0.9,1.1,7.3,15.5,14.3,32c7,16.6,14.3,33.6,16.3,37.9c1.9,4.4,3.5,8.5,3.5,9.1c0,0.8,6.1,15.6,13.5,33
	c7.4,17.4,21.1,49.3,30.2,70.9s18.9,44.5,21.8,51.1c2.8,6.4,10.5,24.6,17.2,40.3c6.7,15.7,13.8,32.4,15.8,37.1
	c7.4,16.9,24,56.4,25.9,62c1.2,3.1,5.4,13.2,9.4,22.4c4,9.1,12.7,29.7,19.3,45.7c11.5,27.2,25.9,61.3,40.2,95.1
	c3.4,8,13.3,31.4,22,52.1c8.8,20.6,19.5,45.9,23.9,56c4.4,10.2,8,18.9,8,19.6c0,0.6,3.7,9.8,8.2,20.3c20.6,48.7,32.7,77.7,32.7,78.9
	c0,3.2-4.6,8.5-8.6,9.7c-15.8,4.7-86.3-18.2-140.3-45.6c-7.1-3.5-15.3-7.7-18.3-9.1c-15.5-7.7-44-26.8-63-42.1
	c-24.7-19.9-60-54.5-77.3-75.8c-28.7-35.4-46-62.7-66.1-104.3C535.1,914,521,833.2,529.7,733.5c4.2-48.7,15.9-95.8,35.3-141.4
	c10.1-24,31-62.9,42.1-78.6C615.5,501.7,623,497.4,627.1,502.1z M1440.5,515.1c7.3,7.4,14.5,19.6,28.7,48
	c31.2,62.3,45.2,113.4,50.3,181.6c7.4,100.3-11.2,188.8-58,275.7c-35.1,65.2-82.7,120.6-141.9,165.2c-26.8,20.1-40.4,28.5-73,44.7
	c-39.5,19.6-71.6,31.8-106,40.4c-21.3,5.4-24.8,5.5-29.1,1.3c-5.6-5.6-4.9-7.9,13.9-52.2c6.8-16,13.2-31.7,14.4-34.9
	c2.2-6.1,14.8-36.8,19.8-47.8c1.5-3.5,10-23.4,18.7-44.1c8.8-20.8,23.8-56,33.3-78.5c24.8-58.5,36.8-86.7,45.1-106.9
	c16-38.9,37-89,39.2-94c1.4-3,7.6-17.6,13.9-32.6c14.4-34.2,51.6-121.2,55.2-129.2c1.5-3.2,4.5-10.3,6.7-15.6
	c28.6-70.1,52-124.2,54.5-126.1C1430.2,507.2,1434.2,508.5,1440.5,515.1z"/>
<path class="st0" d="M925,1410.6c-13.8,3.6-27.5,12.4-36,22.9c-5.6,6.9-11.9,20.3-14.4,30.3c-2.4,9.6-2.4,27.6,0,36.6
	c2.1,8.2,8.1,20.4,12.1,25.3l3.1,3.7l3-4.7c1.6-2.7,4.1-6.6,5.4-8.6c3.5-5.3,3.4-7.1-0.6-15.6c-3.5-7.3-3.7-7.8-3.7-21
	c0-12.6,0.2-13.9,3.1-19.7c3.9-7.8,13.9-18.8,20.7-22.5c12.9-7,28.9-8.6,43.1-4.3c8.8,2.8,8.1,3,17.2-5.4c7.6-6.8,7.4-8.7-1.2-12.8
	c-3.8-1.7-10.2-3.9-14.3-4.7C952.2,1407.8,934.5,1408.2,925,1410.6z"/>
<path class="st0" d="M671.1,1411.9c-0.8,0.8-1.3,1.9-1.3,2.7c0,1.3,11.9,38.5,33.6,105.1l9.9,30.1l8.9,0.3c8.4,0.3,8.9,0.2,10-2.2
	c1.3-2.8-2.7-20.1-9.2-40.5c-1.9-6.2-6.8-21.5-10.7-33.9c-3.9-12.5-10-31.6-13.5-42.8l-6.4-20.1h-9.9
	C676.1,1410.6,672,1411.1,671.1,1411.9z"/>
<path class="st0" d="M839.3,1422.2c-2.1,6.4-8.7,27.5-14.7,47.1c-6,19.5-11.5,37.4-12.3,39.8l-1.4,4.3l-6.6-16.7
	c-3.5-9.1-11.2-28.5-16.8-43c-5.7-14.5-11.7-29.5-13.3-33.3c-3-6.9-3-7-7.2-7h-4.3l-3.9,9.7c-2.1,5.3-7.6,19.6-12.3,31.7
	c-4.6,12.2-10.2,27-12.6,33.1l-4.3,11.1l4.2,13.7c2.8,9.3,4.6,13.6,5.7,13.6c1.3,0,11.5-25.5,25.8-64.5c1.2-3.1,1.5-2.5,8.2,14.5
	c3.9,9.8,8.6,22.6,10.6,28.5c2,5.9,6.8,18.5,10.5,28l6.9,17.2l8.7,0.3c7.4,0.2,8.8,0,9.7-1.6c0.6-1.1,6.3-18.9,12.9-39.6
	c6.6-20.7,16-50.6,21.1-66.5c5.1-15.9,9.2-29.7,9.2-30.4c0-1.1-2.5-1.4-10.1-1.4h-10.1L839.3,1422.2z"/>
<path class="st0" d="M1040.6,1480.5v69.9h9.7h9.7v-59.2v-59.2l20.7,0.4c22.4,0.4,24.4,0.9,31.2,7.2c4.4,4,6.1,7.8,6.1,13.5
	c0,6.2-2.1,11-6.6,15.3c-6,5.7-10.6,7.1-26.5,7.6l-14.3,0.5l0.3,10.3l0.3,10.3l8.8,0.5l8.9,0.5l15.4,25.8l15.4,25.8l10.4,0.3
	l10.4,0.3v-2.7c0-1.6-6-12.9-14-26.3c-7.6-12.9-14.2-24.2-14.5-25c-0.3-0.9,1.3-2.3,4.8-4c7.3-3.4,16.3-13.3,19.5-21.3
	c1.9-4.9,2.5-8.3,2.4-15.9c-0.1-18.4-8.1-32.2-22.9-39.8c-8.3-4.3-13.4-4.8-44.8-4.8h-30.4V1480.5z"/>
<path class="st0" d="M1163.4,1480.2l0.3,69.6l10,0.3l9.9,0.3l-0.2-69.6l-0.3-69.6l-10-0.3l-9.9-0.3L1163.4,1480.2z"/>
<path class="st0" d="M1259.5,1412.4c-0.3,1-0.6,31.2-0.6,67.1c0,47.4,0.3,66.2,1.3,68.2l1.2,2.7h27.5c32.8,0,37.9-0.9,53.5-8.6
	c9-4.5,12.2-6.8,17.4-12.5c7.3-8.1,13.2-19.2,15.8-30c2.5-10.6,1.6-30.7-1.6-40.3c-6-17.3-19.8-33.5-34.8-40.8
	c-12-5.8-20.6-7.5-38.1-7.5h-14.3v8.7c0,12.8-0.1,12.8,14,12.8s20.8,1.3,29.8,5.7c17.4,8.5,24.7,22.2,23.8,44.3
	c-0.4,9.7-0.9,11.6-4.4,19c-6.6,13.4-19.2,23.4-33.9,26.5c-3.1,0.6-12.5,1.2-20.6,1.2h-15v-57.1c0-37.2-0.4-57.7-1.1-59.1
	c-1-1.7-2.4-2-10.1-2C1262,1410.7,1260,1411,1259.5,1412.4z"/>
<path class="st0" d="M985.9,1431.8c-4.2,3.8-6.6,6.9-6.6,8.4c0,1.3,1.9,4.4,4.4,7.1c2.4,2.6,6.1,8.3,8.3,12.7c3.9,7.8,4,8.3,4,20.5
	c0,12.3-0.1,12.6-4,20.4c-5.2,10.3-9.5,15.5-17.3,20.5c-17.7,11.5-38.6,12-57,1.4c-3.4-2-6.7-3.7-7.1-3.7c-1.1,0-9.1,13.3-10.2,16.8
	c-0.5,1.8,0.4,2.9,4.9,6.1c9.1,6.2,20.7,9.6,35.3,10.1c19.3,0.9,32.5-2.7,47.8-12.8c7.2-4.8,9.6-7.2,15.2-15.3
	c9.4-13.4,12.5-22.9,13.1-40.1c0.5-16-1.3-25.7-7.4-37.9c-3.9-7.7-13.9-20.4-16-20.4C992.8,1425.7,989.5,1428.4,985.9,1431.8z"/>
<path class="st0" d="M1189,1537.9c0,4.9,0.3,9.8,0.7,10.7c0.5,1.5,4,1.7,27.4,1.7h26.8v-8.7c0-13.8,2.1-12.8-28.5-12.8H1189V1537.9z
	"/>
</svg>
