<svg width="1557" height="2048" viewBox="0 0 1557 2048" fill="none" xmlns="http://www.w3.org/2000/svg">
<path d="M724.38 0.462891C703.851 1.64526 678.915 4.86963 653.334 9.59888C641.833 11.7485 628.935 13.8982 624.636 14.4355C612.061 16.0479 558.857 29.9131 533.276 38.1892C499.957 49.0449 473.624 59.4707 447.29 72.3685C443.636 74.1958 440.304 75.7004 439.982 75.7004C439.552 75.7004 431.49 79.8923 421.925 85.0514C412.466 90.2106 403.223 95.0472 401.395 95.6921C399.676 96.337 388.713 102.679 377.212 109.772C359.047 120.951 348.729 127.829 324.546 144.597C321.859 146.424 313.475 152.873 305.951 158.892C298.427 164.803 289.721 171.682 286.497 174.047C268.44 187.912 232.326 222.306 199.221 257.345C189.87 267.234 167.621 294.104 167.621 295.502C167.621 295.932 165.579 298.726 163 301.736C160.42 304.853 153.756 313.881 148.275 321.835C142.686 329.789 137.849 336.56 137.526 336.882C135.592 338.495 123.124 357.626 111.516 376.758C98.2954 398.47 87.2248 418.139 78.4112 435.766C71.3174 449.954 51.2182 497.461 47.3488 509.391C45.4142 515.303 42.6196 523.472 41.2223 527.663C30.904 558.081 12.6321 635.576 5.75319 678.676C-1.12567 722.099 -2.09301 847.208 4.24844 886.117C5.43074 893.533 7.36543 906.108 8.65521 914.062C13.8144 947.597 26.3898 996.823 37.5679 1027.46C40.47 1035.41 43.372 1043.9 44.0169 1046.37C45.9516 1053.36 67.7705 1102.05 76.0466 1117.74C103.24 1169.23 112.053 1184.92 122.049 1199.43C135.377 1218.88 164.182 1261.44 172.673 1274.24C182.132 1288.53 218.891 1342.38 253.822 1393.33C260.164 1402.57 273.814 1422.67 284.132 1438.04C319.172 1490.27 344.215 1527.25 344.86 1527.79C345.182 1528.11 346.15 1529.61 347.009 1531.23C347.869 1532.84 349.482 1535.2 350.556 1536.38C351.631 1537.57 364.207 1555.84 378.502 1576.91C392.797 1598.08 404.835 1615.6 405.157 1615.92C406.232 1616.67 414.831 1629.68 414.831 1630.43C414.831 1630.97 434.5 1660.2 453.202 1687.4C458.039 1694.49 472.119 1715.02 484.372 1733.08C496.625 1751.03 508.77 1768.76 511.242 1772.31C517.691 1781.55 536.178 1809.07 550.366 1830.35C557.03 1840.34 562.726 1848.84 563.156 1849.16C563.586 1849.48 565.843 1852.6 568.1 1856.14C578.204 1871.41 624.959 1939.98 625.496 1940.52C625.818 1940.84 631.945 1949.55 638.931 1959.86C645.918 1970.18 653.979 1981.68 656.881 1985.34C659.675 1989.1 662.04 1992.54 662.04 1993.18C662.04 1993.83 667.092 1999.42 673.218 2005.54C685.041 2017.37 701.486 2029.19 715.244 2035.75C730.829 2043.16 755.872 2048 779.196 2048C807.678 2048 833.259 2041.12 854.971 2027.58C859.162 2025.11 863.892 2022.31 865.504 2021.45C871.201 2018.44 887.323 2001.35 895.492 1989.64C899.898 1983.19 916.236 1959.97 924.189 1948.69C931.068 1939.01 977.823 1871.62 1001.68 1837.01C1010.5 1824.11 1017.81 1813.26 1017.81 1812.83C1017.81 1812.4 1023.18 1804.55 1029.52 1795.42C1035.97 1786.28 1053.17 1761.45 1067.68 1740.39C1082.19 1719.21 1096.48 1698.9 1099.28 1695.14C1102.07 1691.37 1112.61 1676 1122.6 1661.06C1151.3 1618.61 1197.84 1550.68 1205.26 1540.68C1209.88 1534.45 1224.6 1513.06 1249.65 1476.41C1269.53 1447.28 1313.6 1383.22 1338.21 1347.65C1377.55 1290.79 1388.51 1274.24 1406.25 1245.11C1416.14 1228.88 1430.32 1205.66 1437.74 1193.52C1450.21 1173.31 1464.5 1147.62 1480.09 1117.74C1490.73 1097.21 1512.22 1047.66 1512.22 1043.47C1512.22 1042.83 1514.16 1037.02 1516.52 1030.68C1528.13 999.51 1541.89 945.232 1547.69 908.151C1555 861.503 1555.43 856.022 1555.97 793.467C1556.4 753.806 1556.19 732.525 1555.33 725.216C1552.96 704.794 1545.44 653.31 1542.75 638.908C1536.62 606.878 1524.69 559.801 1517.38 539.486C1515.02 532.93 1512.65 525.299 1512.12 522.397C1510.61 514.443 1490.08 463.819 1479.55 441.785C1458.91 399.007 1430.32 352.252 1401.95 314.634C1394.64 304.96 1388.62 296.684 1388.62 296.254C1388.51 294.104 1365.3 267.126 1346.06 246.812C1339.39 239.933 1332.73 232.625 1331.12 230.69C1324.99 223.274 1280.71 183.183 1270.17 175.337C1267.92 173.724 1264.59 170.93 1262.65 169.103C1250.18 157.602 1199.88 122.455 1173.98 107.193C1136.25 85.0514 1076.28 56.7836 1042.53 45.283C1036.29 43.2408 1026.51 39.694 1020.6 37.6517C1014.8 35.5021 1008.99 33.5675 1007.7 33.245C1004.16 32.4927 994.698 29.9131 981.8 26.3661C975.351 24.5389 969.009 22.8192 967.827 22.4968C966.645 22.1743 962.023 21.0995 957.509 19.9172C952.995 18.8424 947.405 17.66 945.148 17.2301C942.784 16.9077 939.774 16.3702 938.269 16.0479C936.765 15.7253 933.648 15.188 931.283 14.8655C928.919 14.5431 919.675 12.9309 910.862 11.2112C889.258 7.01929 853.036 1.75269 840.998 1.00037C823.908 0.032959 740.502 -0.396973 724.38 0.462891ZM818.964 56.4612C846.05 57.9659 879.692 61.9427 905.487 66.5645C949.018 74.5182 1010.39 91.2854 1034.47 101.926C1036.29 102.786 1041.77 104.936 1046.83 106.87C1072.3 116.436 1126.36 143.844 1151.41 159.752C1157.75 163.729 1163.23 167.06 1163.55 167.06C1164.73 167.06 1180.1 177.379 1196.76 189.417C1272.54 244.233 1336.38 311.409 1387.33 390.086C1395.07 402.124 1402.59 414.592 1404.1 417.709C1405.49 420.826 1409.26 428.135 1412.48 433.831C1426.99 459.197 1461.28 538.519 1469.55 565.82C1479.23 597.634 1493.2 663.091 1496.64 693.186C1501.8 737.684 1502.98 809.697 1499.22 856.452C1492.02 948.026 1471.6 1014.88 1422.26 1110.22C1402.7 1147.94 1404.42 1144.83 1376.9 1190.29C1364.22 1211.25 1352.18 1231.24 1350.25 1234.68C1348.21 1238.12 1341.54 1248.01 1335.52 1256.72C1329.51 1265.42 1319.72 1279.5 1313.92 1288.1C1308.12 1296.7 1303.06 1303.9 1302.63 1304.22C1301.56 1305.08 1295.11 1314.76 1295.11 1315.51C1295.11 1316.26 1290.27 1322.92 1287.59 1325.93C1286.62 1326.9 1283.61 1331.52 1280.82 1336.14C1278.02 1340.77 1269.42 1353.45 1261.79 1364.41C1254.16 1375.38 1242.98 1391.5 1236.86 1400.42C1206.44 1444.38 1192.47 1464.69 1186.55 1472.97C1183.01 1478.02 1170.54 1496.08 1159.04 1513.28C1147.43 1530.37 1134.42 1549.5 1130.13 1555.73C1088.64 1615.28 1032.85 1696.43 1032.85 1697.18C1032.85 1697.61 1030.49 1701.05 1027.69 1705.02C1024.79 1708.89 1014.47 1723.73 1004.69 1737.91C994.913 1752.1 983.305 1768.87 979.005 1775.1C956.541 1807.56 927.521 1849.7 916.236 1866.35C852.714 1960.29 843.578 1971.37 819.502 1983.08C804.561 1990.39 795.533 1992.32 777.046 1992.43C762.751 1992.43 760.709 1992.22 752.325 1989.42C741.362 1985.88 725.884 1978.35 719.113 1973.41C716.426 1971.37 711.912 1967.39 709.225 1964.49C698.584 1953.2 696.434 1950.19 653.656 1887.53C611.738 1826.16 616.038 1832.5 556.707 1747.05C541.015 1724.48 525.967 1702.55 523.28 1698.36C520.593 1694.06 508.233 1676 495.872 1658.16C483.512 1640.32 461.156 1607.97 446.108 1586.15C431.061 1564.44 418.485 1546.38 418.055 1546.06C417.625 1545.74 413.219 1539.18 408.059 1531.55C398.923 1517.9 373.987 1481.25 366.356 1470.39C364.314 1467.38 355.393 1454.48 346.579 1441.8C337.766 1429.12 325.298 1411.17 318.957 1402.03C303.049 1379.14 278.973 1343.78 269.085 1328.94C264.571 1322.17 259.949 1315.62 258.981 1314.43C255.327 1310.35 217.386 1254.24 212.764 1246.18C210.184 1241.78 204.38 1232.1 199.866 1224.69C191.16 1210.61 159.883 1157.94 145.695 1133.65C124.414 1097.1 95.3934 1032.83 82.9255 994.674C73.3595 965.331 62.3963 917.824 59.1719 891.491C56.2699 868.275 55.8399 860.214 54.7651 818.618C53.7978 781.859 53.9052 768.209 55.3025 739.618C57.2372 698.668 58.6345 686.63 65.0834 652.343C78.6262 580.867 96.8982 525.944 128.713 461.024C134.195 449.739 141.288 435.981 144.513 430.284C147.737 424.588 151.284 417.817 152.574 415.237C157.841 403.629 195.567 348.276 209.217 332.153C212.657 327.961 217.816 321.727 220.718 318.18C228.349 308.722 249.63 285.291 264.785 269.384C293.698 239.073 345.075 197.155 383.123 172.757C426.439 145.027 468.572 123.1 515.864 103.968C532.201 97.4119 559.287 87.8459 565.843 86.4487C568.208 86.0188 580.353 82.9019 592.714 79.5698C665.587 60.1156 744.049 52.0544 818.964 56.4612Z" fill="url(#paint0_linear_1101_2053)"/>
<path d="M751.262 229.713C750.94 229.928 744.921 230.465 737.827 230.895C697.091 233.045 655.71 240.783 611.535 254.541C606.484 256.153 601.002 257.658 599.175 257.98C597.455 258.303 595.52 258.84 594.875 259.27C594.338 259.7 591.866 260.775 589.501 261.527C584.772 263.14 578.753 265.504 575.851 267.116C574.776 267.654 573.486 268.084 572.842 268.084C571.659 268.084 566.07 270.448 552.742 276.79C547.798 279.155 543.714 280.982 543.391 280.982C542.532 280.982 507.815 299.576 503.516 302.371C498.356 305.703 497.389 306.24 489.543 310.862C486.318 312.796 476.86 319.03 468.584 324.834C460.308 330.531 452.676 335.69 451.709 336.335C449.882 337.41 438.059 346.761 422.904 359.121C411.296 368.58 368.195 412.218 356.157 426.62C334.661 452.523 316.926 477.997 301.449 505.082C297.364 512.176 293.388 518.625 292.635 519.377C291.883 520.13 291.238 521.527 291.238 522.387C291.238 523.247 288.121 530.126 284.359 537.649C255.984 594.292 238.464 654.805 230.296 723.809C228.683 737.244 228.361 748.53 228.361 782.924C228.361 820.65 228.683 827.529 230.833 844.726C240.076 917.814 258.026 975.317 293.71 1045.72C303.598 1065.17 326.6 1100.86 342.507 1121.28C363.574 1148.15 401.73 1188.13 423.979 1206.51C457.083 1233.92 499.109 1261.43 534.47 1279.06C546.078 1284.87 570.584 1295.61 572.089 1295.61C572.842 1295.61 577.786 1297.33 583.16 1299.48C610.138 1310.45 656.57 1323.02 691.61 1328.83C724.069 1334.2 742.019 1335.6 776.521 1335.6C843.804 1335.49 900.34 1325.6 965.152 1302.49C992.345 1292.82 997.934 1290.46 1022.65 1277.88C1054.68 1261.43 1080.48 1245.31 1113.37 1220.91C1132.72 1206.62 1168.4 1172.87 1189.57 1148.9C1195.81 1141.81 1201.4 1135.47 1202.15 1134.93C1205.16 1132.13 1222.89 1108.6 1232.03 1095.16C1262.02 1050.77 1287.81 996.706 1303.61 945.222C1319.63 892.663 1325.76 850.96 1326.94 785.611L1327.58 745.842L1324.25 719.509C1320.17 687.91 1316.08 666.628 1308.99 639.972C1298.99 602.569 1288.14 572.689 1272.98 541.089C1259.65 513.358 1256.21 507.447 1234.5 473.482C1224.83 458.435 1203.01 430.382 1189.36 415.442C1179.36 404.479 1156.58 381.155 1151.1 376.211C1147.87 373.309 1142.07 367.935 1138.2 364.173C1131 357.187 1117.99 346.546 1116.81 346.546C1116.38 346.546 1114.44 345.041 1112.4 343.106C1105.85 337.087 1072.31 314.409 1053.29 303.016C1015.24 280.229 983.746 266.257 943.118 254.111C929.575 250.027 917.215 246.48 915.71 246.157C912.486 245.513 903.35 243.47 886.905 239.708C876.479 237.236 848.964 233.152 828.649 231.002C821.448 230.25 751.907 229.068 751.262 229.713ZM807.153 284.744C872.61 289.58 917.752 300.543 977.512 325.802C999.546 335.153 1021.58 347.083 1046.62 363.421C1064.68 375.136 1074.25 384.38 1081.23 396.633L1086.07 405.124L1086.5 417.807C1086.71 424.9 1086.28 433.392 1085.64 436.724C1084.56 441.99 1072.31 472.3 1060.38 499.171C1058.45 503.577 1051.35 520.237 1044.69 536.252C1034.16 561.833 1026.2 580.427 993.312 658.244C989.12 668.025 975.255 700.592 962.465 730.795C933.982 797.541 916.462 838.815 912.163 849.563C905.069 866.975 897.653 884.817 883.788 917.277C875.834 935.871 866.913 956.938 863.904 964.031C861.002 971.125 857.67 978.864 856.595 981.229C855.52 983.593 847.781 1001.76 839.398 1021.53C831.014 1041.31 823.275 1059.48 822.201 1061.84C821.126 1064.2 814.892 1078.93 808.335 1094.51C794.04 1128.37 789.418 1138.48 787.054 1141.05C784.474 1143.85 778.025 1143.63 775.123 1140.52C773.941 1139.23 770.716 1132.78 768.029 1126.33C765.342 1119.77 759.323 1105.26 754.487 1094.09C749.65 1082.8 742.986 1067.32 739.762 1059.69C729.443 1035.18 685.483 932.109 667.319 889.869C657.753 867.405 648.617 845.371 647.004 840.964C645.392 836.558 634.751 811.084 623.358 784.536C612.073 757.88 600.142 729.828 596.81 722.196C590.899 708.224 571.229 662.006 541.027 591.605C532.321 571.184 524.582 552.589 523.937 550.225C523.185 547.86 516.736 532.383 509.642 515.83C485.566 459.617 476.322 437.368 475.248 433.069C471.808 420.279 472.883 398.997 477.182 390.829C481.482 382.66 489.865 375.566 509.964 362.776C515.876 359.014 521.895 355.037 523.4 354.07C535.545 346.008 564.565 331.606 587.352 322.362C641.845 300.221 688.385 288.935 742.126 284.744C766.202 282.916 782.862 282.916 807.153 284.744ZM380.663 502.073C381.523 503.148 387.972 517.55 394.958 534.102C401.945 550.655 409.254 567.744 411.296 572.044C413.23 576.45 414.843 580.535 414.843 581.18C414.843 581.932 420.969 596.765 428.385 614.177C435.802 631.589 449.452 663.511 458.588 685.115C467.724 706.719 477.505 729.613 480.407 736.169C483.201 742.618 490.94 760.783 497.604 776.475C504.268 792.167 511.362 808.827 513.404 813.556C520.82 830.431 537.372 869.984 539.307 875.574C540.489 878.691 544.681 888.794 548.658 897.93C552.635 907.066 561.341 927.595 568.005 943.61C579.505 970.803 593.908 1004.87 608.203 1038.73C611.643 1046.69 621.531 1070.12 630.237 1090.86C639.051 1111.5 649.691 1136.76 654.098 1146.86C658.505 1157.07 662.052 1165.78 662.052 1166.42C662.052 1167.07 665.706 1176.2 670.221 1186.73C690.857 1235.42 702.895 1264.44 702.895 1265.63C702.895 1268.85 698.273 1274.12 694.297 1275.3C678.497 1280.03 607.988 1257.14 554.032 1229.73C546.938 1226.18 538.77 1221.99 535.76 1220.59C520.283 1212.85 491.8 1193.83 472.776 1178.46C448.055 1158.57 412.8 1123.97 395.496 1102.68C366.798 1067.32 349.493 1040.02 329.394 998.426C288.658 914.052 274.578 833.226 283.284 733.482C287.476 684.793 299.192 637.715 318.538 592.035C328.642 568.067 349.493 529.158 360.672 513.466C369.055 501.75 376.579 497.451 380.663 502.073ZM1194.09 515.078C1201.4 522.494 1208.6 534.64 1222.79 563.123C1253.96 625.462 1268.04 676.516 1273.09 744.768C1280.51 845.049 1261.91 933.614 1215.05 1020.46C1179.9 1085.7 1132.39 1141.05 1073.17 1185.66C1046.41 1205.76 1032.76 1214.14 1000.19 1230.37C960.638 1249.93 928.608 1262.19 894.214 1270.79C872.932 1276.16 869.385 1276.27 865.086 1272.08C859.497 1266.49 860.142 1264.12 878.951 1219.84C885.723 1203.82 892.171 1188.13 893.354 1184.91C895.503 1178.78 908.186 1148.15 913.13 1137.08C914.635 1133.53 923.126 1113.65 931.832 1093.01C940.646 1072.27 955.586 1037.01 965.152 1014.55C989.98 956.078 1001.91 927.81 1010.29 907.603C1026.31 868.695 1047.27 818.608 1049.53 813.556C1050.92 810.547 1057.16 795.929 1063.39 780.989C1077.79 746.81 1114.98 659.749 1118.64 651.796C1120.14 648.571 1123.15 641.477 1125.3 636.211C1153.89 566.132 1177.32 511.961 1179.79 510.134C1183.77 507.232 1187.75 508.522 1194.09 515.078Z" fill="url(#paint1_linear_1101_2053)"/>
<path d="M678.603 1410.62C664.845 1414.17 651.087 1422.98 642.596 1433.51C637.007 1440.39 630.665 1453.83 628.193 1463.82C625.829 1473.39 625.829 1491.45 628.193 1500.37C630.343 1508.54 636.255 1520.79 640.339 1525.62L643.456 1529.28L646.465 1524.55C648.078 1521.86 650.55 1517.99 651.839 1515.95C655.386 1510.68 655.279 1508.86 651.195 1500.37C647.648 1493.06 647.54 1492.52 647.54 1479.41C647.54 1466.83 647.755 1465.54 650.657 1459.74C654.527 1451.89 664.522 1440.93 671.401 1437.27C684.299 1430.29 700.314 1428.68 714.502 1432.98C723.315 1435.77 722.563 1435.98 731.699 1427.6C739.33 1420.83 739.115 1418.9 730.517 1414.81C726.755 1413.09 720.306 1410.94 716.221 1410.08C705.796 1407.82 688.061 1408.15 678.603 1410.62Z" fill="#FFD166"/>
<path d="M424.731 1411.93C423.978 1412.68 423.441 1413.86 423.441 1414.62C423.441 1415.91 435.371 1453.1 457.083 1519.73L466.971 1549.83L475.892 1550.15C484.276 1550.47 484.813 1550.37 485.888 1547.89C487.178 1545.1 483.201 1527.8 476.645 1507.37C474.71 1501.14 469.873 1485.88 465.896 1473.52C462.027 1461.05 455.901 1441.92 452.354 1430.74L445.905 1410.64H436.016C429.675 1410.64 425.591 1411.07 424.731 1411.93Z" fill="#FFD166"/>
<path d="M592.925 1422.15C590.776 1428.6 584.219 1449.67 578.2 1469.23C572.181 1488.68 566.7 1506.63 565.947 1509L564.55 1513.3L557.994 1496.64C554.447 1487.5 546.815 1468.16 541.226 1453.65C535.53 1439.14 529.511 1424.2 527.899 1420.33C524.889 1413.45 524.889 1413.34 520.697 1413.34H516.398L512.529 1423.01C510.379 1428.28 504.897 1442.57 500.276 1454.72C495.654 1466.87 490.065 1481.7 487.7 1487.82L483.401 1498.9L487.593 1512.55C490.387 1521.9 492.214 1526.2 493.289 1526.2C494.579 1526.2 504.79 1500.72 519.085 1461.71C520.267 1458.59 520.59 1459.23 527.254 1476.22C531.123 1486 535.852 1498.79 537.894 1504.7C539.937 1510.61 544.666 1523.19 548.428 1532.65L555.306 1549.84L564.013 1550.16C571.429 1550.38 572.826 1550.16 573.686 1548.55C574.331 1547.48 580.027 1529.64 586.584 1509C593.14 1488.25 602.599 1458.37 607.65 1442.47C612.702 1426.56 616.894 1412.8 616.894 1412.05C616.894 1410.98 614.422 1410.65 606.79 1410.65H596.687L592.925 1422.15Z" fill="#FFD166"/>
<path d="M794.24 1480.5V1550.37H803.914H813.587V1491.14V1431.92L834.331 1432.35C856.687 1432.78 858.73 1433.21 865.501 1439.55C869.908 1443.53 871.627 1447.4 871.627 1453.09C871.627 1459.33 869.585 1464.06 865.071 1468.36C859.052 1474.05 854.43 1475.45 838.523 1475.99L824.228 1476.52L824.55 1486.84L824.873 1497.16L833.686 1497.7L842.607 1498.24L857.977 1524.03L873.347 1549.83L883.773 1550.15L894.199 1550.47V1547.79C894.199 1546.17 888.18 1534.89 880.226 1521.45C872.595 1508.55 866.038 1497.27 865.716 1496.41C865.393 1495.55 867.006 1494.15 870.553 1492.43C877.861 1488.99 886.89 1479.1 890.007 1471.15C891.942 1466.21 892.479 1462.87 892.372 1455.24C892.264 1436.86 884.31 1423 869.478 1415.48C861.202 1411.18 856.043 1410.64 824.658 1410.64H794.24V1480.5Z" fill="#FFD166"/>
<path d="M916.996 1480.18L917.318 1549.83L927.314 1550.15L937.202 1550.47L936.987 1480.82L936.665 1411.18L926.669 1410.85L916.781 1410.53L916.996 1480.18Z" fill="#FFD166"/>
<path d="M1013.08 1412.4C1012.76 1413.36 1012.44 1443.56 1012.44 1479.46C1012.44 1526.86 1012.76 1545.67 1013.73 1547.72L1014.91 1550.4H1042.43C1075.21 1550.4 1080.37 1549.54 1095.95 1541.8C1104.98 1537.29 1108.1 1535.03 1113.37 1529.34C1120.67 1521.27 1126.59 1510.1 1129.17 1499.35C1131.64 1488.71 1130.78 1468.61 1127.55 1459.04C1121.53 1441.74 1107.78 1425.51 1092.73 1418.2C1080.69 1412.4 1072.09 1410.68 1054.68 1410.68H1040.39V1419.38C1040.39 1432.17 1040.28 1432.17 1054.36 1432.17C1068.44 1432.17 1075.21 1433.46 1084.13 1437.87C1101.54 1446.36 1108.85 1460.12 1107.88 1482.15C1107.45 1491.82 1107.02 1493.76 1103.48 1501.18C1096.92 1514.61 1084.24 1524.61 1069.62 1527.72C1066.5 1528.37 1057.15 1528.91 1048.98 1528.91H1033.94V1471.83C1033.94 1434.64 1033.51 1414.11 1032.86 1412.72C1031.89 1411 1030.5 1410.68 1022.76 1410.68C1015.56 1410.68 1013.62 1411 1013.08 1412.4Z" fill="#FFD166"/>
<path d="M739.542 1431.81C735.351 1435.57 732.986 1438.69 732.986 1440.2C732.986 1441.49 734.921 1444.6 737.393 1447.29C739.757 1449.87 743.519 1455.57 745.669 1459.97C749.538 1467.82 749.646 1468.25 749.646 1480.5C749.646 1492.75 749.538 1493.08 745.669 1500.92C740.51 1511.24 736.21 1516.4 728.364 1521.45C710.63 1532.95 689.778 1533.49 671.399 1522.85C667.959 1520.81 664.735 1519.2 664.305 1519.2C663.23 1519.2 655.169 1532.52 654.094 1535.96C653.557 1537.79 654.524 1538.86 659.038 1542.09C668.174 1548.32 679.782 1551.66 694.292 1552.19C713.639 1553.05 726.752 1549.51 742.122 1539.4C749.323 1534.57 751.688 1532.2 757.277 1524.14C766.628 1510.7 769.745 1501.25 770.39 1484.05C770.927 1468.03 769.1 1458.36 762.974 1446.11C759.104 1438.37 749.108 1425.69 746.959 1425.69C746.421 1425.69 743.089 1428.37 739.542 1431.81Z" fill="#FFD166"/>
<path d="M942.581 1537.93C942.581 1542.88 942.904 1547.72 943.226 1548.68C943.763 1550.19 947.203 1550.4 970.634 1550.4H997.397V1541.7C997.397 1527.94 999.547 1528.91 968.914 1528.91H942.581V1537.93Z" fill="#FFD166"/>
<defs>
<linearGradient id="paint0_linear_1101_2053" x1="987.1" y1="2127.5" x2="318.6" y2="32.5001" gradientUnits="userSpaceOnUse">
<stop offset="0.182292" stop-color="#DDBA69"/>
<stop offset="0.348958" stop-color="#FFD166"/>
<stop offset="0.848958" stop-color="#DDBA69"/>
</linearGradient>
<linearGradient id="paint1_linear_1101_2053" x1="925.605" y1="1378.53" x2="638.538" y2="201.912" gradientUnits="userSpaceOnUse">
<stop offset="0.182292" stop-color="#DDBA69"/>
<stop offset="0.348958" stop-color="#FFD166"/>
<stop offset="0.848958" stop-color="#DDBA69"/>
</linearGradient>
</defs>
</svg>
